<mxfile host="65bd71144e">
    <diagram id="GkdnXFTpEQJnH0Vaa9NC" name="Page-1">
        <mxGraphModel dx="1999" dy="1876" grid="0" gridSize="10" guides="1" tooltips="1" connect="1" arrows="1" fold="1" page="1" pageScale="1" pageWidth="850" pageHeight="1100" math="0" shadow="1">
            <root>
                <mxCell id="0"/>
                <mxCell id="1" parent="0"/>
                <mxCell id="17" style="edgeStyle=none;html=1;exitX=1;exitY=0.5;exitDx=0;exitDy=0;entryX=0;entryY=0.5;entryDx=0;entryDy=0;strokeColor=light-dark(#872c2c, #ededed);fontStyle=1;fontSize=14;" parent="1" source="2" target="3" edge="1">
                    <mxGeometry relative="1" as="geometry"/>
                </mxCell>
                <mxCell id="38" style="edgeStyle=none;html=1;exitX=0.5;exitY=1;exitDx=0;exitDy=0;strokeColor=light-dark(#872c2c, #ededed);fontStyle=1;fontSize=14;" parent="1" source="2" target="16" edge="1">
                    <mxGeometry relative="1" as="geometry"/>
                </mxCell>
                <mxCell id="2" value="core" style="rounded=0;whiteSpace=wrap;html=1;strokeColor=light-dark(#872c2c, #ededed);fontStyle=1;fontSize=14;" parent="1" vertex="1">
                    <mxGeometry x="50" y="170" width="120" height="60" as="geometry"/>
                </mxCell>
                <mxCell id="18" style="edgeStyle=none;html=1;exitX=1;exitY=0.5;exitDx=0;exitDy=0;entryX=0;entryY=0.5;entryDx=0;entryDy=0;strokeColor=light-dark(#872c2c, #ededed);fontStyle=1;fontSize=14;" parent="1" source="3" target="5" edge="1">
                    <mxGeometry relative="1" as="geometry"/>
                </mxCell>
                <mxCell id="42" style="edgeStyle=none;html=1;exitX=0.5;exitY=1;exitDx=0;exitDy=0;entryX=0.5;entryY=0;entryDx=0;entryDy=0;strokeColor=light-dark(#872c2c, #ededed);fontStyle=1;fontSize=14;" parent="1" source="3" target="13" edge="1">
                    <mxGeometry relative="1" as="geometry"/>
                </mxCell>
                <mxCell id="3" value="motor_driver" style="rounded=0;whiteSpace=wrap;html=1;strokeColor=light-dark(#872c2c, #ededed);fontStyle=1;fontSize=14;" parent="1" vertex="1">
                    <mxGeometry x="270" y="170" width="120" height="60" as="geometry"/>
                </mxCell>
                <mxCell id="19" style="edgeStyle=none;html=1;exitX=1;exitY=0.5;exitDx=0;exitDy=0;entryX=0;entryY=0.5;entryDx=0;entryDy=0;strokeColor=light-dark(#872c2c, #ededed);fontStyle=1;fontSize=14;" parent="1" source="5" target="6" edge="1">
                    <mxGeometry relative="1" as="geometry"/>
                </mxCell>
                <mxCell id="5" value="KinematicsFactory" style="rounded=0;whiteSpace=wrap;html=1;strokeColor=light-dark(#872c2c, #ededed);fontStyle=1;fontSize=14;" parent="1" vertex="1">
                    <mxGeometry x="470" y="170" width="120" height="60" as="geometry"/>
                </mxCell>
                <mxCell id="20" style="edgeStyle=none;html=1;exitX=1;exitY=0.5;exitDx=0;exitDy=0;entryX=0;entryY=0.5;entryDx=0;entryDy=0;strokeColor=light-dark(#872c2c, #ededed);fontStyle=1;fontSize=14;" parent="1" target="7" edge="1">
                    <mxGeometry relative="1" as="geometry">
                        <mxPoint x="810" y="200" as="sourcePoint"/>
                    </mxGeometry>
                </mxCell>
                <mxCell id="6" value="BaseKinematics" style="rounded=0;whiteSpace=wrap;html=1;strokeColor=light-dark(#872c2c, #ededed);fontStyle=1;fontSize=14;" parent="1" vertex="1">
                    <mxGeometry x="640" y="170" width="120" height="60" as="geometry"/>
                </mxCell>
                <mxCell id="7" value="DifferentialDrive" style="rounded=0;whiteSpace=wrap;html=1;fillColor=#fff2cc;strokeColor=light-dark(#872c2c, #ededed);fontStyle=1;fontSize=14;" parent="1" vertex="1">
                    <mxGeometry x="860" y="170" width="120" height="60" as="geometry"/>
                </mxCell>
                <mxCell id="8" value="MecanumDrive" style="rounded=0;whiteSpace=wrap;html=1;fillColor=#fff2cc;strokeColor=light-dark(#872c2c, #ededed);fontStyle=1;fontSize=14;" parent="1" vertex="1">
                    <mxGeometry x="860" y="250" width="120" height="60" as="geometry"/>
                </mxCell>
                <mxCell id="9" value="OmniDrive" style="rounded=0;whiteSpace=wrap;html=1;fillColor=#fff2cc;strokeColor=light-dark(#872c2c, #ededed);fontStyle=1;fontSize=14;" parent="1" vertex="1">
                    <mxGeometry x="860" y="330" width="120" height="60" as="geometry"/>
                </mxCell>
                <mxCell id="10" value="QuaternionDrive" style="rounded=0;whiteSpace=wrap;html=1;fillColor=#fff2cc;strokeColor=light-dark(#872c2c, #ededed);fontStyle=1;fontSize=14;" parent="1" vertex="1">
                    <mxGeometry x="860" y="410" width="120" height="60" as="geometry"/>
                </mxCell>
                <mxCell id="36" style="edgeStyle=none;html=1;exitX=1;exitY=0.5;exitDx=0;exitDy=0;entryX=0;entryY=0.5;entryDx=0;entryDy=0;strokeColor=light-dark(#872c2c, #ededed);fontStyle=1;fontSize=14;" parent="1" source="11" target="31" edge="1">
                    <mxGeometry relative="1" as="geometry"/>
                </mxCell>
                <mxCell id="11" value="CanInterface" style="rounded=0;whiteSpace=wrap;html=1;fillColor=#fff2cc;strokeColor=light-dark(#872c2c, #ededed);fontStyle=1;fontSize=14;" parent="1" vertex="1">
                    <mxGeometry x="470" y="50" width="120" height="60" as="geometry"/>
                </mxCell>
                <mxCell id="43" style="edgeStyle=none;html=1;exitX=1;exitY=0.5;exitDx=0;exitDy=0;entryX=0;entryY=0.5;entryDx=0;entryDy=0;strokeColor=light-dark(#872c2c, #ededed);fontStyle=1;fontSize=14;" parent="1" source="13" target="47" edge="1">
                    <mxGeometry relative="1" as="geometry">
                        <mxPoint x="480" y="330" as="targetPoint"/>
                    </mxGeometry>
                </mxCell>
                <mxCell id="13" value="OdometryNode" style="rounded=0;whiteSpace=wrap;html=1;strokeColor=light-dark(#872c2c, #ededed);fontStyle=1;fontSize=14;" parent="1" vertex="1">
                    <mxGeometry x="270" y="300" width="120" height="60" as="geometry"/>
                </mxCell>
                <mxCell id="14" value="params.yaml" style="rounded=0;whiteSpace=wrap;html=1;strokeColor=light-dark(#872c2c, #ededed);fontStyle=1;fontSize=14;" parent="1" vertex="1">
                    <mxGeometry x="270" y="-20" width="120" height="60" as="geometry"/>
                </mxCell>
                <mxCell id="40" style="edgeStyle=none;html=1;strokeColor=light-dark(#872c2c, #ededed);fontStyle=1;fontSize=14;" parent="1" source="16" target="39" edge="1">
                    <mxGeometry relative="1" as="geometry"/>
                </mxCell>
                <mxCell id="16" value="CrashHandler" style="rounded=0;whiteSpace=wrap;html=1;strokeColor=light-dark(#872c2c, #ededed);fontStyle=1;fontSize=14;" parent="1" vertex="1">
                    <mxGeometry x="50" y="368" width="120" height="60" as="geometry"/>
                </mxCell>
                <mxCell id="22" value="" style="edgeStyle=elbowEdgeStyle;elbow=horizontal;endArrow=classic;html=1;curved=0;rounded=0;endSize=8;startSize=8;exitX=1;exitY=0.5;exitDx=0;exitDy=0;strokeColor=light-dark(#872c2c, #ededed);fontStyle=1;fontSize=14;" parent="1" source="6" edge="1">
                    <mxGeometry width="50" height="50" relative="1" as="geometry">
                        <mxPoint x="810" y="200" as="sourcePoint"/>
                        <mxPoint x="860" y="280" as="targetPoint"/>
                    </mxGeometry>
                </mxCell>
                <mxCell id="24" value="" style="edgeStyle=elbowEdgeStyle;elbow=horizontal;endArrow=classic;html=1;curved=0;rounded=0;endSize=8;startSize=8;exitX=1;exitY=0.5;exitDx=0;exitDy=0;strokeColor=light-dark(#872c2c, #ededed);fontStyle=1;fontSize=14;" parent="1" source="6" edge="1">
                    <mxGeometry width="50" height="50" relative="1" as="geometry">
                        <mxPoint x="770" y="200" as="sourcePoint"/>
                        <mxPoint x="860" y="360" as="targetPoint"/>
                    </mxGeometry>
                </mxCell>
                <mxCell id="25" value="" style="edgeStyle=elbowEdgeStyle;elbow=horizontal;endArrow=classic;html=1;curved=0;rounded=0;endSize=8;startSize=8;exitX=1;exitY=0.5;exitDx=0;exitDy=0;entryX=0;entryY=0.5;entryDx=0;entryDy=0;strokeColor=light-dark(#872c2c, #ededed);fontStyle=1;fontSize=14;" parent="1" source="6" target="10" edge="1">
                    <mxGeometry width="50" height="50" relative="1" as="geometry">
                        <mxPoint x="810" y="200" as="sourcePoint"/>
                        <mxPoint x="870" y="370" as="targetPoint"/>
                    </mxGeometry>
                </mxCell>
                <mxCell id="26" value="" style="edgeStyle=elbowEdgeStyle;elbow=horizontal;endArrow=classic;html=1;curved=0;rounded=0;endSize=8;startSize=8;exitX=0.5;exitY=1;exitDx=0;exitDy=0;entryX=0.5;entryY=0;entryDx=0;entryDy=0;strokeColor=light-dark(#872c2c, #ededed);fontStyle=1;fontSize=14;" parent="1" source="14" target="3" edge="1">
                    <mxGeometry width="50" height="50" relative="1" as="geometry">
                        <mxPoint x="270" y="80" as="sourcePoint"/>
                        <mxPoint x="270" y="200" as="targetPoint"/>
                    </mxGeometry>
                </mxCell>
                <mxCell id="28" value="" style="edgeStyle=elbowEdgeStyle;elbow=horizontal;endArrow=classic;html=1;curved=0;rounded=0;endSize=8;startSize=8;entryX=0;entryY=0.5;entryDx=0;entryDy=0;exitX=0;exitY=0.5;exitDx=0;exitDy=0;strokeColor=light-dark(#872c2c, #ededed);fontStyle=1;fontSize=14;" parent="1" source="14" target="13" edge="1">
                    <mxGeometry width="50" height="50" relative="1" as="geometry">
                        <mxPoint x="270" y="80" as="sourcePoint"/>
                        <mxPoint x="560" y="170" as="targetPoint"/>
                        <Array as="points">
                            <mxPoint x="240" y="240"/>
                            <mxPoint x="420" y="270"/>
                        </Array>
                    </mxGeometry>
                </mxCell>
                <mxCell id="30" value="" style="edgeStyle=elbowEdgeStyle;elbow=horizontal;endArrow=classic;html=1;curved=0;rounded=0;endSize=8;startSize=8;exitX=1;exitY=0.5;exitDx=0;exitDy=0;entryX=0.02;entryY=0.627;entryDx=0;entryDy=0;entryPerimeter=0;strokeColor=light-dark(#872c2c, #ededed);fontStyle=1;fontSize=14;" parent="1" source="3" target="11" edge="1">
                    <mxGeometry width="50" height="50" relative="1" as="geometry">
                        <mxPoint x="510" y="220" as="sourcePoint"/>
                        <mxPoint x="560" y="170" as="targetPoint"/>
                        <Array as="points"/>
                    </mxGeometry>
                </mxCell>
                <mxCell id="34" style="edgeStyle=none;html=1;exitX=1;exitY=0.5;exitDx=0;exitDy=0;strokeColor=light-dark(#872c2c, #ededed);fontStyle=1;fontSize=14;" parent="1" source="31" target="33" edge="1">
                    <mxGeometry relative="1" as="geometry"/>
                </mxCell>
                <mxCell id="31" value="socket" style="rounded=0;whiteSpace=wrap;html=1;strokeColor=light-dark(#872c2c, #ededed);fontStyle=1;fontSize=14;" parent="1" vertex="1">
                    <mxGeometry x="640" y="50" width="120" height="60" as="geometry"/>
                </mxCell>
                <mxCell id="33" value="CAN" style="rounded=0;whiteSpace=wrap;html=1;strokeColor=light-dark(#872c2c, #ededed);fontStyle=1;fontSize=14;" parent="1" vertex="1">
                    <mxGeometry x="860" y="50" width="120" height="60" as="geometry"/>
                </mxCell>
                <mxCell id="39" value="SIGNALS" style="rounded=0;whiteSpace=wrap;html=1;strokeColor=light-dark(#872c2c, #ededed);fontStyle=1;fontSize=14;" parent="1" vertex="1">
                    <mxGeometry x="50" y="520" width="120" height="60" as="geometry"/>
                </mxCell>
                <mxCell id="41" value="controller_type,  drive_type, wheel_radius&#xa;wheel_base, wheel_separation, interface_name" style="text;whiteSpace=wrap;strokeColor=light-dark(#872c2c, #ededed);fontColor=light-dark(#a8105e, #ec5ba6);fontStyle=1;fontSize=14;shadow=0;align=center;" parent="1" vertex="1">
                    <mxGeometry x="270" y="-108" width="336" height="48" as="geometry"/>
                </mxCell>
                <mxCell id="47" value="odometry" style="ellipse;shape=doubleEllipse;whiteSpace=wrap;html=1;aspect=fixed;fillColor=#ffe6cc;strokeColor=light-dark(#872c2c, #ededed);fontStyle=1;fontSize=14;" parent="1" vertex="1">
                    <mxGeometry x="500" y="290" width="80" height="80" as="geometry"/>
                </mxCell>
                <mxCell id="48" value="JoyToCmdVelNode" style="rounded=0;whiteSpace=wrap;html=1;fillColor=#dae8fc;strokeColor=light-dark(#872c2c, #ededed);fontStyle=1" parent="1" vertex="1">
                    <mxGeometry x="50" y="880" width="120" height="60" as="geometry"/>
                </mxCell>
                <mxCell id="50" style="edgeStyle=none;html=1;entryX=0.25;entryY=0;entryDx=0;entryDy=0;strokeColor=light-dark(#872c2c, #ededed);fontStyle=1;fontSize=14;" parent="1" source="49" target="3" edge="1">
                    <mxGeometry relative="1" as="geometry">
                        <Array as="points"/>
                    </mxGeometry>
                </mxCell>
                <mxCell id="49" value="cmd_vel" style="ellipse;shape=doubleEllipse;whiteSpace=wrap;html=1;aspect=fixed;fillColor=#ffe6cc;strokeColor=light-dark(#872c2c, #ededed);fontStyle=1;fontSize=14;" parent="1" vertex="1">
                    <mxGeometry x="50" y="20" width="80" height="80" as="geometry"/>
                </mxCell>
                <mxCell id="55" value="" style="edgeStyle=elbowEdgeStyle;elbow=horizontal;endArrow=classic;html=1;curved=0;rounded=0;endSize=8;startSize=8;entryX=0;entryY=0.5;entryDx=0;entryDy=0;strokeColor=light-dark(#872c2c, #ededed);fontStyle=1;fontSize=14;" parent="1" target="49" edge="1">
                    <mxGeometry width="50" height="50" relative="1" as="geometry">
                        <mxPoint x="50" y="914" as="sourcePoint"/>
                        <mxPoint x="60" y="540" as="targetPoint"/>
                        <Array as="points">
                            <mxPoint x="-40" y="880"/>
                            <mxPoint x="10" y="340"/>
                        </Array>
                    </mxGeometry>
                </mxCell>
                <mxCell id="58" style="edgeStyle=none;html=1;exitX=0.5;exitY=1;exitDx=0;exitDy=0;strokeColor=light-dark(#872c2c, #ededed);fontStyle=1;fontSize=14;" parent="1" source="56" target="49" edge="1">
                    <mxGeometry relative="1" as="geometry"/>
                </mxCell>
                <mxCell id="56" value="Planner" style="rounded=0;whiteSpace=wrap;html=1;strokeColor=light-dark(#872c2c, #ededed);fontStyle=1;fontSize=14;" parent="1" vertex="1">
                    <mxGeometry x="30" y="-120" width="120" height="60" as="geometry"/>
                </mxCell>
                <mxCell id="61" value="teleop_keyboard.py" style="rounded=0;whiteSpace=wrap;html=1;fillColor=#dae8fc;strokeColor=light-dark(#872c2c, #ededed);fontStyle=1" parent="1" vertex="1">
                    <mxGeometry x="50" y="1000" width="120" height="60" as="geometry"/>
                </mxCell>
                <mxCell id="62" value="" style="edgeStyle=elbowEdgeStyle;elbow=horizontal;endArrow=classic;html=1;curved=0;rounded=0;endSize=8;startSize=8;exitX=0;exitY=0.5;exitDx=0;exitDy=0;entryX=0;entryY=0.5;entryDx=0;entryDy=0;strokeColor=light-dark(#872c2c, #ededed);fontStyle=1" parent="1" source="61" target="49" edge="1">
                    <mxGeometry width="50" height="50" relative="1" as="geometry">
                        <mxPoint x="-20" y="720" as="sourcePoint"/>
                        <mxPoint x="30" y="670" as="targetPoint"/>
                        <Array as="points">
                            <mxPoint x="-40" y="420"/>
                            <mxPoint x="10" y="390"/>
                        </Array>
                    </mxGeometry>
                </mxCell>
                <mxCell id="68" style="edgeStyle=none;html=1;exitX=1;exitY=0.5;exitDx=0;exitDy=0;entryX=0;entryY=0.5;entryDx=0;entryDy=0;fontSize=14;fillColor=#f8cecc;strokeColor=#B85450;" parent="1" source="63" target="64" edge="1">
                    <mxGeometry relative="1" as="geometry"/>
                </mxCell>
                <mxCell id="63" value="MonitorNode" style="rounded=0;whiteSpace=wrap;html=1;strokeColor=light-dark(#872c2c, #ededed);fontStyle=1;fontSize=14;" parent="1" vertex="1">
                    <mxGeometry x="50" y="750" width="120" height="60" as="geometry"/>
                </mxCell>
                <mxCell id="64" value="NetworkMonitor" style="rounded=0;whiteSpace=wrap;html=1;strokeColor=light-dark(#872c2c, #ededed);fontStyle=1;fontSize=14;" parent="1" vertex="1">
                    <mxGeometry x="272" y="750" width="120" height="60" as="geometry"/>
                </mxCell>
                <mxCell id="65" value="SystemMonitor" style="rounded=0;whiteSpace=wrap;html=1;strokeColor=light-dark(#872c2c, #ededed);fontStyle=1;fontSize=14;" parent="1" vertex="1">
                    <mxGeometry x="272" y="830" width="120" height="60" as="geometry"/>
                </mxCell>
                <mxCell id="73" style="edgeStyle=none;html=1;exitX=1;exitY=0.5;exitDx=0;exitDy=0;fontSize=14;fillColor=#f8cecc;strokeColor=#B85450;" parent="1" source="66" target="72" edge="1">
                    <mxGeometry relative="1" as="geometry"/>
                </mxCell>
                <mxCell id="66" value="Logger" style="rounded=0;whiteSpace=wrap;html=1;strokeColor=light-dark(#872c2c, #ededed);fontStyle=1;fontSize=14;" parent="1" vertex="1">
                    <mxGeometry x="50" y="640" width="120" height="60" as="geometry"/>
                </mxCell>
                <mxCell id="69" value="" style="edgeStyle=segmentEdgeStyle;endArrow=classic;html=1;curved=0;rounded=0;endSize=8;startSize=8;entryX=0;entryY=0.5;entryDx=0;entryDy=0;fontSize=14;fillColor=#f8cecc;strokeColor=#B85450;" parent="1" target="65" edge="1">
                    <mxGeometry width="50" height="50" relative="1" as="geometry">
                        <mxPoint x="180" y="780" as="sourcePoint"/>
                        <mxPoint x="410" y="710" as="targetPoint"/>
                        <Array as="points">
                            <mxPoint x="210" y="780"/>
                            <mxPoint x="210" y="860"/>
                        </Array>
                    </mxGeometry>
                </mxCell>
                <mxCell id="70" value="" style="edgeStyle=segmentEdgeStyle;endArrow=classic;html=1;curved=0;rounded=0;endSize=8;startSize=8;exitX=0;exitY=0.5;exitDx=0;exitDy=0;fontSize=14;" parent="1" source="2" edge="1">
                    <mxGeometry width="50" height="50" relative="1" as="geometry">
                        <mxPoint x="360" y="410" as="sourcePoint"/>
                        <mxPoint x="54" y="660" as="targetPoint"/>
                        <Array as="points">
                            <mxPoint x="20" y="200"/>
                            <mxPoint x="20" y="660"/>
                        </Array>
                    </mxGeometry>
                </mxCell>
                <mxCell id="71" value="" style="edgeStyle=segmentEdgeStyle;endArrow=classic;html=1;curved=0;rounded=0;endSize=8;startSize=8;exitX=0;exitY=0.5;exitDx=0;exitDy=0;entryX=0;entryY=0.5;entryDx=0;entryDy=0;fontSize=14;fillColor=#f8cecc;strokeColor=#B85450;" parent="1" source="2" target="63" edge="1">
                    <mxGeometry width="50" height="50" relative="1" as="geometry">
                        <mxPoint x="50" y="310" as="sourcePoint"/>
                        <mxPoint x="50" y="710" as="targetPoint"/>
                        <Array as="points">
                            <mxPoint x="20" y="200"/>
                            <mxPoint x="20" y="780"/>
                        </Array>
                    </mxGeometry>
                </mxCell>
                <mxCell id="72" value="boost::log" style="rounded=0;whiteSpace=wrap;html=1;strokeColor=light-dark(#872c2c, #ededed);fontStyle=1;fontSize=14;" parent="1" vertex="1">
                    <mxGeometry x="272" y="640" width="120" height="60" as="geometry"/>
                </mxCell>
                <mxCell id="78" value="" style="edgeStyle=elbowEdgeStyle;elbow=horizontal;endArrow=classic;html=1;curved=0;rounded=0;endSize=8;startSize=8;exitX=0.5;exitY=1;exitDx=0;exitDy=0;entryX=1;entryY=0.5;entryDx=0;entryDy=0;strokeColor=light-dark(#872c2c, #ededed);fontStyle=1;fontSize=14;" parent="1" source="41" target="14" edge="1">
                    <mxGeometry width="50" height="50" relative="1" as="geometry">
                        <mxPoint x="504" y="48" as="sourcePoint"/>
                        <mxPoint x="586" y="-64" as="targetPoint"/>
                        <Array as="points">
                            <mxPoint x="442" y="-56"/>
                        </Array>
                    </mxGeometry>
                </mxCell>
                <mxCell id="80" value="stacktrace_backtrace" style="rounded=0;whiteSpace=wrap;html=1;strokeColor=light-dark(#872c2c, #ededed);fontStyle=1;fontSize=14;" parent="1" vertex="1">
                    <mxGeometry x="272" y="524" width="157" height="52" as="geometry"/>
                </mxCell>
                <mxCell id="82" value="" style="endArrow=classic;html=1;entryX=0;entryY=0.5;entryDx=0;entryDy=0;" parent="1" target="80" edge="1">
                    <mxGeometry width="50" height="50" relative="1" as="geometry">
                        <mxPoint x="170" y="550" as="sourcePoint"/>
                        <mxPoint x="258" y="544" as="targetPoint"/>
                        <Array as="points"/>
                    </mxGeometry>
                </mxCell>
                <mxCell id="91" style="edgeStyle=none;html=1;exitX=0.5;exitY=0;exitDx=0;exitDy=0;dashed=1;dashPattern=8 8;" parent="1" source="83" edge="1">
                    <mxGeometry relative="1" as="geometry">
                        <mxPoint x="332" y="362" as="targetPoint"/>
                    </mxGeometry>
                </mxCell>
                <mxCell id="83" value="ImuNode" style="rounded=0;whiteSpace=wrap;html=1;strokeColor=#b85450;fontStyle=1;fontSize=14;fillColor=#f8cecc;" parent="1" vertex="1">
                    <mxGeometry x="272" y="418" width="120" height="60" as="geometry"/>
                </mxCell>
                <mxCell id="93" value="&lt;font style=&quot;font-size: 24px;&quot;&gt;after&lt;/font&gt;" style="text;strokeColor=none;fillColor=none;align=left;verticalAlign=top;spacingLeft=4;spacingRight=4;overflow=hidden;rotatable=0;points=[[0,0.5],[1,0.5]];portConstraint=eastwest;whiteSpace=wrap;html=1;" parent="1" vertex="1">
                    <mxGeometry x="357" y="402" width="66" height="43" as="geometry"/>
                </mxCell>
            </root>
        </mxGraphModel>
    </diagram>
</mxfile>